<?xml version="1.0" encoding="utf-8" ?>
<svg baseProfile="tiny" height="100%" version="1.2" width="100%" xmlns="http://www.w3.org/2000/svg" xmlns:ev="http://www.w3.org/2001/xml-events" xmlns:xlink="http://www.w3.org/1999/xlink"><defs /><path d="M 518,998 Z" fill="currentColor" /><path d="M 528,995 Z" fill="currentColor" /><path d="M 517,995 L 518,995 Z" fill="currentColor" /><path d="M 543,993 Z" fill="currentColor" /><path d="M 539,992 Z" fill="currentColor" /><path d="M 494,992 Z" fill="currentColor" /><path d="M 550,990 Z" fill="currentColor" /><path d="M 480,988 Z" fill="currentColor" /><path d="M 468,986 Z" fill="currentColor" /><path d="M 571,984 Z" fill="currentColor" /><path d="M 566,983 Z" fill="currentColor" /><path d="M 582,979 Z" fill="currentColor" /><path d="M 446,979 Z" fill="currentColor" /><path d="M 616,965 Z" fill="currentColor" /><path d="M 395,961 Z" fill="currentColor" /><path d="M 384,957 Z" fill="currentColor" /><path d="M 656,947 Z" fill="currentColor" /><path d="M 720,915 Z" fill="currentColor" /><path d="M 735,906 Z" fill="currentColor" /><path d="M 240,876 Z" fill="currentColor" /><path d="M 854,811 Z" fill="currentColor" /><path d="M 148,789 Z" fill="currentColor" /><path d="M 961,662 Z" fill="currentColor" /><path d="M 62,658 Z" fill="currentColor" /><path d="M 975,636 Z" fill="currentColor" /><path d="M 987,620 Z" fill="currentColor" /><path d="M 998,605 Z" fill="currentColor" /><path d="M 1007,597 Z" fill="currentColor" /><path d="M 1012,593 Z" fill="currentColor" /><path d="M 1020,590 Z" fill="currentColor" /><path d="M 1022,586 Z" fill="currentColor" /><path d="M 1023,582 Z" fill="currentColor" /><path d="M 23,578 L 23,579 L 22,580 L 23,579 Z" fill="currentColor" /><path d="M 20,574 Z" fill="currentColor" /><path d="M 18,571 Z" fill="currentColor" /><path d="M 19,569 Z" fill="currentColor" /><path d="M 9,558 Z" fill="currentColor" /><path d="M 4,558 Z" fill="currentColor" /><path d="M 4,556 Z" fill="currentColor" /><path d="M 0,556 Z" fill="currentColor" /><path d="M 2,554 Z" fill="currentColor" /><path d="M 1,445 L 2,445 Z" fill="currentColor" /><path d="M 1,442 Z" fill="currentColor" /><path d="M 3,441 Z" fill="currentColor" /><path d="M 6,439 L 5,440 Z" fill="currentColor" /><path d="M 2,439 Z" fill="currentColor" /><path d="M 10,438 L 10,439 L 11,438 Z" fill="currentColor" /><path d="M 7,437 Z" fill="currentColor" /><path d="M 4,436 Z" fill="currentColor" /><path d="M 13,434 Z" fill="currentColor" /><path d="M 15,428 Z" fill="currentColor" /><path d="M 1018,425 Z" fill="currentColor" /><path d="M 22,421 Z" fill="currentColor" /><path d="M 30,407 Z" fill="currentColor" /><path d="M 52,364 Z" fill="currentColor" /><path d="M 91,295 Z" fill="currentColor" /><path d="M 910,266 Z" fill="currentColor" /><path d="M 908,264 Z" fill="currentColor" /><path d="M 772,122 Z" fill="currentColor" /><path d="M 760,111 Z" fill="currentColor" /><path d="M 722,87 Z" fill="currentColor" /><path d="M 720,86 Z" fill="currentColor" /><path d="M 321,75 Z" fill="currentColor" /><path d="M 342,63 L 341,64 Z" fill="currentColor" /><path d="M 393,29 Z" fill="currentColor" /><path d="M 399,25 Z" fill="currentColor" /><path d="M 618,23 Z" fill="currentColor" /><path d="M 619,20 Z" fill="currentColor" /><path d="M 611,17 Z" fill="currentColor" /><path d="M 613,16 Z" fill="currentColor" /><path d="M 408,16 L 407,17 Z" fill="currentColor" /><path d="M 610,14 Z" fill="currentColor" /><path d="M 412,11 L 411,12 L 412,12 Z" fill="currentColor" /><path d="M 604,9 Z" fill="currentColor" /><path d="M 610,7 Z" fill="currentColor" /><path d="M 412,5 L 412,6 L 411,7 L 412,6 Z" fill="currentColor" /><path d="M 414,3 Z" fill="currentColor" /><path d="M 418,0 L 419,1 L 416,4 L 417,5 L 417,6 L 416,7 L 415,6 L 414,6 L 415,6 L 416,7 L 417,7 L 418,8 L 417,9 L 414,9 L 414,13 L 413,14 L 412,14 L 413,15 L 411,17 L 410,16 L 411,17 L 412,17 L 413,18 L 411,20 L 410,19 L 408,19 L 406,21 L 405,20 L 406,21 L 405,22 L 403,22 L 402,23 L 403,24 L 400,27 L 400,29 L 399,30 L 398,29 L 396,29 L 394,31 L 395,32 L 395,33 L 394,34 L 392,32 L 392,31 L 392,32 L 391,33 L 392,34 L 392,35 L 391,36 L 390,35 L 389,36 L 387,36 L 385,38 L 385,39 L 384,40 L 383,39 L 383,38 L 383,39 L 381,41 L 380,40 L 381,41 L 380,42 L 379,42 L 377,44 L 376,43 L 376,44 L 375,45 L 374,45 L 373,46 L 372,45 L 372,47 L 371,48 L 370,47 L 370,46 L 370,48 L 369,49 L 368,49 L 367,50 L 366,50 L 367,51 L 366,52 L 364,52 L 363,51 L 364,52 L 363,53 L 362,53 L 361,52 L 360,53 L 359,52 L 361,54 L 360,55 L 358,55 L 357,54 L 356,55 L 357,54 L 358,55 L 358,56 L 357,57 L 355,57 L 354,58 L 353,58 L 353,59 L 352,60 L 351,59 L 350,60 L 349,60 L 347,62 L 345,62 L 344,63 L 344,64 L 342,66 L 340,66 L 339,65 L 339,66 L 337,68 L 336,68 L 335,69 L 334,68 L 333,69 L 332,69 L 329,72 L 328,72 L 327,71 L 328,72 L 328,73 L 327,74 L 326,73 L 322,77 L 321,77 L 320,78 L 319,77 L 319,76 L 318,77 L 318,78 L 317,79 L 315,79 L 316,79 L 317,80 L 316,81 L 314,81 L 313,82 L 312,82 L 311,81 L 309,83 L 308,83 L 308,84 L 307,85 L 305,85 L 304,84 L 305,85 L 303,87 L 302,86 L 300,88 L 300,89 L 299,90 L 298,89 L 298,90 L 295,93 L 294,93 L 293,92 L 293,93 L 291,95 L 290,95 L 289,96 L 288,96 L 285,99 L 283,99 L 284,100 L 283,101 L 281,101 L 280,102 L 279,101 L 278,102 L 278,103 L 277,104 L 276,104 L 273,107 L 272,107 L 271,108 L 270,107 L 270,108 L 269,109 L 268,109 L 267,110 L 266,109 L 267,110 L 266,111 L 267,112 L 266,113 L 264,113 L 263,114 L 262,114 L 260,116 L 259,116 L 258,117 L 257,117 L 257,118 L 256,119 L 254,119 L 255,120 L 255,121 L 254,122 L 253,122 L 252,123 L 251,123 L 250,124 L 249,123 L 250,124 L 249,125 L 247,125 L 246,126 L 246,127 L 245,128 L 244,128 L 243,129 L 242,129 L 241,130 L 240,130 L 240,131 L 239,132 L 238,132 L 235,135 L 234,135 L 234,136 L 233,137 L 231,137 L 229,139 L 228,138 L 228,139 L 227,140 L 226,140 L 226,141 L 225,142 L 224,142 L 220,146 L 218,146 L 217,147 L 217,148 L 215,150 L 214,150 L 211,153 L 211,154 L 210,155 L 208,155 L 206,157 L 206,158 L 205,159 L 204,159 L 205,160 L 204,161 L 203,161 L 202,162 L 201,162 L 202,163 L 201,164 L 199,164 L 199,165 L 198,166 L 197,166 L 196,167 L 196,168 L 195,169 L 195,170 L 194,171 L 193,170 L 192,171 L 192,172 L 191,173 L 190,173 L 188,175 L 187,175 L 187,177 L 183,181 L 182,181 L 181,182 L 180,182 L 181,183 L 179,185 L 178,185 L 178,186 L 177,187 L 176,187 L 175,186 L 174,187 L 174,188 L 173,189 L 172,189 L 172,190 L 171,191 L 171,192 L 168,195 L 166,195 L 165,196 L 166,197 L 165,198 L 164,198 L 163,199 L 163,200 L 160,203 L 159,203 L 157,205 L 157,206 L 154,209 L 155,210 L 154,211 L 153,211 L 152,212 L 151,211 L 151,212 L 149,214 L 149,216 L 148,217 L 147,217 L 147,218 L 145,220 L 144,219 L 145,220 L 144,221 L 144,222 L 143,223 L 142,223 L 142,224 L 140,226 L 139,226 L 139,228 L 138,229 L 137,229 L 137,230 L 136,231 L 135,231 L 135,232 L 133,234 L 133,235 L 132,236 L 131,236 L 131,237 L 129,239 L 129,241 L 128,242 L 127,242 L 127,243 L 126,244 L 125,244 L 125,245 L 124,246 L 124,247 L 123,248 L 123,249 L 118,254 L 118,256 L 117,257 L 117,259 L 116,260 L 115,260 L 113,262 L 114,263 L 111,266 L 110,266 L 109,267 L 110,268 L 108,270 L 107,270 L 108,271 L 108,272 L 107,273 L 107,274 L 106,275 L 105,275 L 106,276 L 104,278 L 102,278 L 102,281 L 99,284 L 99,285 L 98,286 L 98,288 L 96,290 L 95,290 L 94,291 L 94,293 L 93,294 L 93,297 L 92,298 L 91,297 L 91,301 L 90,302 L 89,301 L 90,302 L 90,303 L 89,304 L 88,303 L 89,304 L 88,305 L 87,305 L 86,304 L 87,305 L 86,306 L 87,307 L 86,308 L 85,308 L 84,309 L 84,310 L 83,311 L 83,313 L 82,314 L 82,316 L 81,317 L 80,316 L 79,317 L 79,319 L 78,320 L 77,320 L 77,321 L 75,323 L 76,324 L 76,325 L 74,327 L 74,329 L 71,332 L 70,332 L 71,333 L 70,334 L 70,336 L 69,337 L 68,337 L 69,337 L 70,338 L 66,342 L 66,343 L 65,344 L 64,344 L 64,346 L 62,348 L 62,352 L 59,355 L 59,357 L 58,358 L 57,358 L 58,359 L 57,360 L 58,361 L 57,362 L 56,362 L 55,361 L 55,362 L 54,363 L 54,365 L 53,366 L 52,366 L 52,367 L 53,368 L 52,369 L 52,371 L 51,372 L 51,373 L 50,374 L 49,374 L 51,376 L 49,378 L 48,377 L 47,377 L 48,377 L 49,378 L 48,379 L 47,379 L 46,380 L 45,379 L 46,380 L 46,381 L 45,382 L 45,383 L 43,385 L 44,386 L 42,388 L 43,389 L 42,390 L 41,390 L 40,391 L 40,392 L 38,394 L 39,393 L 40,394 L 40,395 L 38,397 L 37,396 L 38,397 L 36,399 L 35,398 L 37,400 L 36,401 L 35,401 L 35,402 L 34,403 L 34,404 L 33,405 L 32,405 L 33,406 L 32,407 L 33,408 L 33,410 L 32,411 L 31,411 L 28,414 L 26,414 L 27,414 L 28,415 L 26,417 L 27,417 L 28,418 L 27,419 L 26,419 L 26,421 L 25,422 L 24,421 L 24,419 L 24,421 L 25,422 L 24,423 L 23,423 L 23,425 L 24,425 L 25,426 L 24,427 L 22,427 L 21,428 L 22,429 L 21,430 L 20,430 L 20,431 L 19,432 L 18,431 L 19,432 L 19,433 L 17,435 L 16,434 L 14,436 L 14,437 L 13,438 L 14,439 L 13,440 L 14,440 L 15,441 L 14,442 L 13,442 L 13,443 L 12,444 L 11,443 L 11,442 L 9,444 L 8,443 L 7,443 L 6,442 L 7,441 L 6,442 L 6,445 L 5,446 L 4,445 L 4,444 L 3,443 L 4,444 L 4,445 L 5,446 L 4,447 L 3,447 L 2,448 L 1,447 L 0,447 L 0,448 L 1,449 L 1,450 L 0,451 L 0,468 L 1,469 L 0,470 L 0,544 L 1,544 L 2,543 L 3,544 L 3,546 L 2,547 L 0,547 L 3,547 L 4,548 L 2,550 L 1,550 L 0,549 L 1,550 L 2,550 L 3,551 L 3,550 L 4,549 L 5,550 L 5,551 L 7,553 L 6,554 L 5,554 L 6,554 L 7,555 L 6,556 L 6,558 L 7,559 L 7,558 L 6,557 L 7,556 L 7,553 L 8,552 L 10,552 L 11,553 L 10,554 L 11,554 L 12,555 L 12,559 L 13,559 L 15,561 L 16,561 L 17,562 L 16,563 L 16,564 L 17,565 L 17,566 L 16,567 L 15,566 L 16,567 L 17,566 L 17,565 L 18,564 L 20,566 L 20,567 L 21,567 L 22,568 L 22,569 L 21,570 L 22,571 L 21,572 L 22,573 L 22,574 L 23,575 L 24,575 L 25,576 L 25,578 L 26,579 L 26,580 L 27,581 L 26,582 L 25,582 L 26,583 L 27,583 L 28,584 L 27,585 L 28,586 L 29,586 L 30,587 L 30,592 L 31,591 L 32,592 L 32,593 L 31,594 L 32,593 L 33,594 L 33,595 L 32,596 L 33,597 L 33,598 L 34,597 L 35,598 L 35,599 L 36,600 L 35,601 L 35,602 L 34,603 L 35,602 L 37,604 L 36,605 L 36,606 L 39,609 L 40,609 L 41,610 L 41,611 L 42,612 L 41,613 L 41,614 L 42,615 L 44,615 L 46,617 L 45,618 L 43,618 L 43,619 L 44,620 L 45,620 L 46,621 L 46,623 L 47,624 L 47,626 L 47,625 L 48,624 L 49,624 L 50,625 L 49,626 L 50,627 L 48,629 L 49,630 L 50,630 L 52,632 L 51,633 L 52,632 L 53,633 L 53,634 L 54,635 L 53,636 L 52,636 L 52,637 L 53,636 L 55,638 L 55,639 L 56,639 L 57,640 L 56,641 L 57,642 L 57,643 L 58,643 L 59,644 L 58,645 L 58,646 L 59,646 L 60,647 L 60,648 L 59,649 L 62,652 L 62,654 L 63,655 L 63,656 L 64,657 L 64,658 L 65,659 L 64,660 L 66,662 L 66,663 L 68,663 L 69,664 L 68,665 L 67,665 L 68,665 L 70,667 L 69,668 L 70,669 L 70,670 L 71,671 L 72,671 L 73,672 L 72,673 L 71,673 L 72,673 L 73,674 L 73,675 L 75,677 L 75,678 L 74,679 L 78,683 L 77,684 L 79,686 L 79,687 L 82,690 L 82,692 L 83,693 L 83,694 L 85,696 L 86,696 L 87,697 L 86,698 L 86,700 L 87,701 L 88,700 L 89,701 L 89,702 L 90,703 L 90,704 L 91,705 L 91,706 L 92,706 L 93,707 L 92,708 L 93,708 L 94,709 L 94,710 L 95,711 L 95,713 L 96,713 L 97,714 L 96,715 L 97,715 L 99,717 L 99,718 L 100,719 L 99,720 L 100,720 L 101,721 L 101,722 L 102,723 L 101,724 L 102,725 L 102,726 L 103,726 L 104,727 L 104,728 L 106,730 L 106,733 L 108,735 L 109,735 L 110,736 L 110,739 L 114,743 L 114,744 L 115,745 L 115,746 L 116,745 L 117,746 L 117,747 L 116,748 L 116,749 L 117,748 L 120,751 L 120,752 L 121,752 L 122,753 L 122,754 L 124,756 L 124,757 L 127,760 L 127,761 L 128,762 L 128,763 L 131,766 L 131,767 L 133,769 L 133,770 L 135,772 L 136,772 L 137,773 L 137,774 L 138,775 L 139,775 L 140,776 L 140,778 L 142,780 L 142,782 L 143,781 L 145,783 L 146,783 L 147,784 L 147,785 L 148,786 L 147,787 L 148,786 L 151,789 L 150,790 L 150,791 L 152,791 L 155,794 L 155,795 L 156,796 L 156,797 L 158,799 L 160,799 L 161,800 L 160,801 L 161,800 L 162,801 L 162,802 L 163,803 L 163,804 L 167,808 L 168,807 L 169,808 L 169,809 L 171,811 L 171,812 L 173,814 L 173,815 L 174,815 L 175,816 L 175,817 L 176,817 L 177,818 L 177,819 L 178,819 L 180,821 L 180,822 L 182,822 L 183,823 L 182,824 L 183,825 L 183,826 L 184,826 L 185,827 L 185,828 L 186,827 L 187,828 L 187,829 L 190,832 L 190,833 L 191,834 L 192,834 L 193,835 L 192,836 L 194,836 L 195,837 L 195,838 L 197,840 L 197,841 L 199,843 L 199,842 L 200,841 L 203,844 L 203,845 L 204,846 L 205,845 L 206,846 L 206,847 L 207,847 L 208,848 L 207,849 L 208,849 L 211,852 L 210,853 L 211,852 L 212,853 L 212,854 L 213,854 L 214,855 L 215,855 L 216,856 L 217,856 L 222,861 L 222,862 L 223,861 L 225,863 L 226,863 L 227,864 L 228,864 L 229,865 L 230,865 L 231,866 L 230,867 L 231,868 L 232,868 L 233,869 L 234,869 L 235,870 L 235,871 L 237,871 L 239,873 L 239,874 L 241,874 L 243,876 L 243,877 L 244,877 L 245,878 L 245,879 L 246,879 L 247,878 L 248,879 L 248,880 L 249,881 L 250,881 L 251,882 L 251,883 L 252,882 L 253,883 L 253,884 L 255,886 L 257,886 L 258,887 L 259,887 L 260,886 L 262,888 L 262,889 L 263,890 L 264,890 L 267,893 L 267,894 L 269,894 L 270,895 L 270,896 L 272,898 L 273,898 L 275,900 L 278,900 L 279,901 L 278,902 L 279,903 L 283,903 L 287,907 L 287,908 L 289,908 L 292,911 L 293,910 L 294,911 L 296,911 L 299,914 L 300,913 L 301,914 L 301,915 L 300,916 L 301,916 L 302,917 L 303,916 L 304,916 L 305,915 L 306,916 L 306,917 L 307,917 L 308,918 L 309,918 L 310,919 L 310,920 L 311,921 L 311,922 L 311,921 L 312,920 L 313,921 L 314,921 L 317,924 L 318,924 L 319,925 L 320,925 L 322,927 L 325,927 L 328,930 L 330,930 L 333,933 L 336,933 L 338,935 L 342,935 L 343,936 L 346,936 L 347,937 L 346,938 L 345,938 L 347,938 L 348,937 L 350,939 L 350,940 L 351,939 L 352,940 L 353,940 L 354,941 L 353,942 L 354,941 L 355,941 L 357,943 L 361,943 L 364,946 L 365,945 L 366,946 L 366,947 L 367,947 L 368,948 L 367,949 L 368,948 L 369,948 L 370,949 L 373,949 L 374,950 L 374,951 L 376,951 L 377,952 L 378,951 L 379,952 L 380,952 L 381,953 L 382,953 L 383,954 L 384,954 L 385,955 L 386,955 L 388,957 L 387,958 L 389,956 L 391,958 L 392,958 L 393,959 L 396,959 L 397,960 L 397,961 L 398,962 L 399,962 L 399,961 L 400,960 L 402,962 L 404,962 L 405,963 L 407,963 L 408,964 L 409,963 L 410,964 L 410,965 L 410,964 L 411,963 L 412,964 L 412,966 L 412,965 L 413,964 L 415,966 L 414,967 L 415,966 L 416,966 L 417,967 L 416,968 L 417,968 L 418,967 L 420,969 L 419,970 L 421,968 L 422,968 L 423,969 L 422,970 L 423,970 L 424,971 L 425,971 L 426,972 L 427,971 L 428,972 L 428,971 L 429,970 L 431,972 L 430,973 L 431,972 L 433,974 L 435,974 L 436,973 L 438,975 L 440,975 L 442,977 L 443,976 L 444,976 L 445,977 L 447,977 L 448,978 L 448,979 L 448,978 L 449,977 L 450,978 L 450,979 L 451,979 L 452,978 L 453,979 L 453,980 L 454,981 L 456,979 L 457,979 L 458,980 L 457,981 L 457,982 L 458,981 L 458,980 L 459,979 L 460,980 L 460,982 L 461,982 L 462,983 L 462,982 L 463,981 L 464,982 L 464,983 L 465,982 L 466,982 L 467,983 L 467,984 L 468,983 L 468,982 L 469,981 L 470,982 L 470,983 L 471,983 L 472,984 L 472,985 L 472,983 L 473,982 L 474,982 L 475,983 L 474,984 L 475,985 L 476,984 L 479,984 L 480,985 L 479,986 L 478,986 L 478,987 L 480,985 L 481,985 L 482,986 L 483,986 L 484,985 L 485,986 L 487,986 L 488,987 L 488,988 L 489,989 L 489,990 L 490,989 L 490,988 L 491,987 L 494,987 L 495,988 L 494,989 L 494,990 L 494,989 L 495,988 L 496,989 L 496,990 L 497,990 L 498,991 L 499,991 L 500,990 L 500,989 L 501,988 L 502,988 L 503,989 L 502,990 L 503,991 L 502,992 L 503,993 L 502,992 L 504,990 L 505,991 L 506,991 L 507,992 L 508,991 L 509,992 L 509,993 L 510,994 L 509,995 L 511,993 L 512,994 L 513,994 L 512,994 L 510,992 L 512,990 L 513,991 L 513,992 L 514,991 L 515,992 L 515,993 L 517,993 L 518,992 L 519,993 L 520,993 L 521,992 L 522,992 L 523,991 L 524,992 L 524,993 L 523,994 L 525,992 L 526,992 L 527,993 L 528,993 L 529,992 L 531,992 L 532,993 L 533,992 L 534,992 L 535,993 L 534,994 L 536,992 L 536,991 L 537,990 L 538,990 L 539,989 L 540,990 L 541,989 L 543,991 L 542,990 L 544,988 L 545,989 L 545,990 L 546,989 L 548,989 L 550,987 L 551,987 L 552,988 L 552,987 L 553,986 L 554,987 L 555,987 L 555,986 L 556,985 L 556,984 L 557,983 L 558,984 L 558,986 L 559,985 L 560,986 L 559,985 L 562,982 L 563,983 L 564,983 L 564,981 L 565,980 L 566,981 L 567,980 L 568,980 L 569,981 L 571,981 L 572,980 L 573,980 L 574,979 L 574,978 L 575,977 L 576,978 L 576,980 L 576,979 L 577,978 L 578,979 L 579,978 L 579,977 L 580,976 L 581,976 L 582,975 L 583,976 L 585,976 L 587,974 L 588,975 L 589,974 L 591,974 L 592,975 L 593,974 L 593,973 L 594,972 L 595,973 L 596,973 L 597,972 L 596,971 L 597,970 L 598,970 L 599,969 L 601,971 L 602,970 L 602,969 L 603,968 L 605,968 L 604,967 L 606,965 L 607,966 L 607,967 L 608,967 L 610,965 L 611,966 L 611,967 L 612,966 L 611,965 L 612,964 L 613,964 L 614,965 L 614,966 L 614,964 L 615,963 L 618,963 L 619,962 L 621,962 L 621,960 L 622,959 L 623,960 L 623,961 L 625,959 L 626,959 L 627,958 L 628,958 L 628,957 L 629,956 L 630,957 L 630,958 L 632,956 L 633,956 L 634,955 L 635,955 L 636,954 L 637,954 L 636,953 L 637,952 L 639,952 L 640,951 L 642,951 L 644,949 L 645,949 L 645,948 L 646,947 L 647,948 L 649,948 L 650,947 L 651,947 L 651,946 L 652,945 L 653,945 L 654,946 L 656,944 L 657,945 L 657,944 L 658,943 L 660,943 L 661,942 L 662,942 L 665,939 L 667,939 L 668,938 L 668,937 L 669,936 L 670,937 L 672,937 L 672,936 L 673,935 L 678,935 L 679,934 L 680,935 L 682,933 L 682,932 L 683,931 L 684,931 L 684,930 L 685,929 L 686,930 L 687,929 L 688,930 L 688,931 L 688,929 L 689,928 L 691,928 L 692,927 L 693,928 L 696,925 L 697,926 L 697,925 L 699,923 L 700,924 L 702,922 L 703,922 L 704,923 L 705,922 L 705,921 L 707,919 L 708,919 L 709,918 L 712,918 L 713,917 L 715,917 L 715,916 L 716,915 L 717,915 L 718,914 L 717,913 L 718,912 L 719,912 L 720,913 L 722,911 L 724,911 L 725,910 L 726,911 L 727,910 L 727,909 L 728,908 L 729,909 L 728,908 L 729,907 L 730,907 L 731,906 L 732,906 L 731,905 L 732,904 L 734,904 L 735,903 L 738,903 L 741,900 L 742,901 L 742,899 L 743,898 L 744,899 L 744,900 L 744,899 L 743,898 L 744,897 L 747,897 L 749,895 L 752,895 L 753,894 L 753,893 L 754,892 L 755,893 L 757,891 L 758,891 L 760,889 L 761,889 L 761,888 L 763,886 L 764,887 L 767,884 L 768,884 L 768,882 L 769,881 L 770,882 L 769,881 L 770,880 L 771,880 L 772,879 L 774,879 L 776,877 L 777,877 L 780,874 L 780,873 L 781,872 L 782,873 L 783,873 L 785,871 L 786,871 L 789,868 L 790,868 L 791,867 L 791,866 L 793,864 L 794,864 L 795,865 L 795,864 L 794,863 L 795,862 L 796,862 L 796,861 L 797,860 L 799,860 L 803,856 L 804,856 L 807,853 L 809,853 L 809,852 L 811,850 L 812,850 L 812,849 L 814,847 L 816,847 L 818,845 L 818,844 L 819,843 L 820,843 L 820,842 L 821,841 L 822,841 L 823,840 L 824,841 L 824,840 L 825,839 L 826,839 L 826,838 L 829,835 L 830,835 L 830,834 L 831,833 L 832,834 L 832,832 L 833,831 L 834,831 L 834,830 L 835,829 L 836,829 L 840,825 L 840,824 L 841,823 L 843,823 L 842,822 L 843,821 L 844,821 L 846,819 L 846,818 L 847,817 L 848,817 L 848,816 L 849,815 L 850,815 L 850,814 L 849,813 L 850,812 L 851,812 L 851,811 L 854,808 L 857,808 L 856,807 L 860,803 L 861,803 L 861,802 L 862,801 L 863,802 L 862,801 L 863,800 L 864,800 L 864,799 L 865,798 L 866,799 L 866,797 L 867,796 L 868,796 L 869,795 L 869,793 L 870,792 L 871,792 L 871,791 L 872,790 L 873,790 L 873,789 L 875,787 L 875,786 L 876,785 L 877,785 L 878,786 L 877,785 L 878,784 L 878,782 L 879,781 L 880,782 L 880,783 L 880,782 L 882,780 L 882,779 L 883,778 L 884,778 L 884,777 L 885,776 L 885,775 L 886,774 L 886,773 L 887,772 L 888,772 L 888,770 L 889,769 L 889,768 L 890,767 L 891,767 L 892,766 L 891,765 L 892,764 L 893,764 L 893,763 L 894,762 L 893,761 L 894,760 L 895,760 L 895,759 L 896,758 L 897,758 L 898,757 L 897,756 L 899,754 L 900,754 L 900,752 L 901,751 L 902,751 L 903,750 L 903,749 L 904,748 L 904,747 L 905,746 L 905,745 L 906,744 L 906,742 L 907,741 L 908,741 L 908,740 L 913,735 L 913,734 L 914,733 L 914,732 L 916,730 L 916,729 L 915,728 L 916,727 L 917,727 L 918,726 L 919,726 L 920,725 L 920,724 L 921,723 L 921,722 L 922,721 L 923,721 L 923,719 L 924,718 L 924,717 L 925,716 L 926,716 L 925,715 L 926,714 L 926,713 L 929,710 L 930,711 L 929,710 L 929,709 L 931,707 L 931,704 L 932,703 L 933,703 L 934,702 L 934,699 L 935,698 L 936,699 L 936,696 L 938,694 L 939,694 L 939,693 L 940,692 L 940,690 L 941,689 L 941,687 L 943,685 L 944,685 L 945,686 L 944,687 L 945,686 L 945,683 L 946,682 L 946,681 L 948,679 L 948,678 L 949,677 L 949,676 L 950,675 L 950,674 L 951,673 L 952,674 L 952,672 L 954,670 L 954,669 L 955,668 L 955,667 L 956,666 L 955,665 L 956,664 L 957,664 L 959,662 L 958,661 L 959,660 L 960,660 L 961,659 L 961,656 L 963,654 L 964,654 L 963,653 L 964,652 L 966,652 L 966,650 L 968,648 L 967,647 L 970,644 L 969,643 L 970,642 L 970,641 L 972,639 L 972,638 L 973,637 L 973,635 L 974,634 L 974,633 L 975,632 L 976,633 L 976,632 L 977,631 L 978,631 L 979,630 L 980,630 L 978,630 L 977,629 L 978,628 L 981,628 L 980,628 L 979,627 L 980,626 L 981,626 L 981,624 L 982,623 L 983,624 L 983,625 L 983,624 L 985,622 L 984,621 L 985,620 L 985,618 L 986,617 L 987,617 L 987,616 L 988,615 L 988,614 L 989,613 L 990,614 L 991,613 L 990,612 L 991,611 L 992,611 L 993,610 L 992,609 L 992,608 L 993,607 L 996,607 L 996,606 L 995,605 L 996,604 L 996,603 L 997,602 L 998,603 L 998,602 L 999,601 L 1000,601 L 1001,600 L 1000,599 L 1002,597 L 1003,598 L 1002,597 L 1003,596 L 1004,596 L 1004,595 L 1003,595 L 1002,594 L 1003,593 L 1004,593 L 1004,592 L 1005,591 L 1006,591 L 1007,592 L 1006,593 L 1006,594 L 1007,594 L 1008,595 L 1009,595 L 1008,594 L 1008,593 L 1009,592 L 1008,591 L 1009,590 L 1009,589 L 1010,588 L 1010,587 L 1011,586 L 1012,587 L 1012,589 L 1011,590 L 1012,591 L 1011,590 L 1012,589 L 1012,587 L 1011,586 L 1011,585 L 1012,584 L 1013,584 L 1014,585 L 1014,587 L 1015,587 L 1016,588 L 1016,591 L 1017,590 L 1018,590 L 1017,590 L 1016,589 L 1016,588 L 1017,587 L 1016,586 L 1017,585 L 1019,585 L 1020,584 L 1021,584 L 1020,584 L 1019,583 L 1020,582 L 1021,582 L 1020,581 L 1021,580 L 1023,580 L 1022,579 L 1022,578 L 1023,577 L 1023,434 L 1022,434 L 1021,433 L 1021,432 L 1022,431 L 1023,432 L 1022,431 L 1022,430 L 1021,430 L 1020,429 L 1020,428 L 1020,430 L 1019,431 L 1018,431 L 1017,430 L 1017,429 L 1018,428 L 1018,427 L 1016,429 L 1014,427 L 1014,426 L 1013,427 L 1011,425 L 1011,424 L 1008,424 L 1007,423 L 1008,422 L 1008,421 L 1007,422 L 1006,421 L 1006,420 L 1007,419 L 1006,418 L 1007,419 L 1006,420 L 1004,420 L 1002,418 L 1003,417 L 1003,416 L 1001,414 L 1000,414 L 999,413 L 998,413 L 997,412 L 998,411 L 999,411 L 997,409 L 995,409 L 994,408 L 994,407 L 993,406 L 994,405 L 994,404 L 993,403 L 992,403 L 992,404 L 991,405 L 989,405 L 987,403 L 988,402 L 989,402 L 990,403 L 990,402 L 988,402 L 986,400 L 986,399 L 987,398 L 988,399 L 989,399 L 988,398 L 987,398 L 985,396 L 986,395 L 984,395 L 983,396 L 982,395 L 982,394 L 983,393 L 984,393 L 984,391 L 984,392 L 983,393 L 982,393 L 981,392 L 982,391 L 982,390 L 981,390 L 980,389 L 981,388 L 980,389 L 978,387 L 978,386 L 977,385 L 977,384 L 975,382 L 976,381 L 975,380 L 975,377 L 973,375 L 972,375 L 971,374 L 972,373 L 971,372 L 969,372 L 968,371 L 969,370 L 968,369 L 968,368 L 969,367 L 969,366 L 968,366 L 966,364 L 966,360 L 966,361 L 965,362 L 964,361 L 964,359 L 963,358 L 963,357 L 962,356 L 962,355 L 961,354 L 961,352 L 960,352 L 959,351 L 960,350 L 960,349 L 959,350 L 958,349 L 958,347 L 957,347 L 956,346 L 956,345 L 955,344 L 955,343 L 954,342 L 954,341 L 953,340 L 953,339 L 954,338 L 952,338 L 951,337 L 952,336 L 950,334 L 950,333 L 947,330 L 947,329 L 945,327 L 945,325 L 944,324 L 944,322 L 942,320 L 940,320 L 939,319 L 940,318 L 939,317 L 939,316 L 938,316 L 937,315 L 937,313 L 936,312 L 937,311 L 936,311 L 935,310 L 936,309 L 936,308 L 935,309 L 934,309 L 933,308 L 933,306 L 932,305 L 932,303 L 931,303 L 930,302 L 930,299 L 927,296 L 928,295 L 927,295 L 926,294 L 926,293 L 925,292 L 926,291 L 925,292 L 924,292 L 923,291 L 924,290 L 923,289 L 923,288 L 922,287 L 923,286 L 922,286 L 920,284 L 921,283 L 920,283 L 919,282 L 920,281 L 918,281 L 917,280 L 917,279 L 914,276 L 914,275 L 915,274 L 913,272 L 913,271 L 911,271 L 909,269 L 909,268 L 908,267 L 908,266 L 907,266 L 906,265 L 906,263 L 905,262 L 905,261 L 901,257 L 901,256 L 900,255 L 900,253 L 899,254 L 898,253 L 898,251 L 893,246 L 893,245 L 892,245 L 891,244 L 891,242 L 889,240 L 889,238 L 883,232 L 884,231 L 884,230 L 882,230 L 880,228 L 880,227 L 879,226 L 879,225 L 878,225 L 877,224 L 877,223 L 876,222 L 876,221 L 875,221 L 874,220 L 874,219 L 873,218 L 873,217 L 870,214 L 869,214 L 867,212 L 867,211 L 866,210 L 865,210 L 864,209 L 865,208 L 864,208 L 863,207 L 864,206 L 863,206 L 861,204 L 861,203 L 860,204 L 859,203 L 859,200 L 857,198 L 856,198 L 854,196 L 853,197 L 852,196 L 852,194 L 851,193 L 850,193 L 849,192 L 849,191 L 848,190 L 849,189 L 848,190 L 846,188 L 845,188 L 844,187 L 844,186 L 843,185 L 843,184 L 841,182 L 841,181 L 840,182 L 838,180 L 838,179 L 837,179 L 836,178 L 837,177 L 836,178 L 835,177 L 835,176 L 834,175 L 835,174 L 834,174 L 832,172 L 831,173 L 830,172 L 830,171 L 829,171 L 828,170 L 828,169 L 827,169 L 826,168 L 826,167 L 824,165 L 823,165 L 822,164 L 821,164 L 818,161 L 819,160 L 818,161 L 816,159 L 817,158 L 817,157 L 816,157 L 815,156 L 814,157 L 813,156 L 813,155 L 810,152 L 809,152 L 808,151 L 809,150 L 808,151 L 806,149 L 806,148 L 804,148 L 803,147 L 804,146 L 803,145 L 801,145 L 800,144 L 800,143 L 799,143 L 797,141 L 796,141 L 792,137 L 791,137 L 790,136 L 789,136 L 788,135 L 787,135 L 783,131 L 782,131 L 781,130 L 780,130 L 778,128 L 778,127 L 777,128 L 774,125 L 773,125 L 772,124 L 771,124 L 770,123 L 769,123 L 768,122 L 769,121 L 768,121 L 767,120 L 768,119 L 767,119 L 766,118 L 766,117 L 765,118 L 764,117 L 763,117 L 761,115 L 760,115 L 759,114 L 760,113 L 758,113 L 757,112 L 757,111 L 756,110 L 756,109 L 755,108 L 754,109 L 751,106 L 749,106 L 748,105 L 747,105 L 746,104 L 746,103 L 745,102 L 744,102 L 742,100 L 741,100 L 739,98 L 740,99 L 739,100 L 738,100 L 737,99 L 737,98 L 736,98 L 735,97 L 733,97 L 732,96 L 733,95 L 732,94 L 731,94 L 730,93 L 729,93 L 728,92 L 728,91 L 727,92 L 726,92 L 724,90 L 722,90 L 720,88 L 719,89 L 718,88 L 718,87 L 716,85 L 715,86 L 714,85 L 713,85 L 711,83 L 710,84 L 707,81 L 706,81 L 705,82 L 704,81 L 704,78 L 703,79 L 702,78 L 702,77 L 701,78 L 700,77 L 700,76 L 699,77 L 698,76 L 698,75 L 697,74 L 696,74 L 695,75 L 692,72 L 692,71 L 690,71 L 688,69 L 689,70 L 688,71 L 687,71 L 686,70 L 686,69 L 685,70 L 684,69 L 683,69 L 682,68 L 683,67 L 682,68 L 680,66 L 680,67 L 679,68 L 678,67 L 678,66 L 677,67 L 675,65 L 676,64 L 674,62 L 673,62 L 672,61 L 671,62 L 669,62 L 668,61 L 667,61 L 666,60 L 665,60 L 664,59 L 665,58 L 667,58 L 665,58 L 664,57 L 663,57 L 662,56 L 661,56 L 660,55 L 660,54 L 659,54 L 658,53 L 654,53 L 653,52 L 653,51 L 652,51 L 651,50 L 651,49 L 649,49 L 648,48 L 648,47 L 647,47 L 646,46 L 645,46 L 644,45 L 643,46 L 642,45 L 642,44 L 643,43 L 640,43 L 639,42 L 639,41 L 638,40 L 637,40 L 636,39 L 635,39 L 632,36 L 630,36 L 629,35 L 629,34 L 628,33 L 626,33 L 625,32 L 625,30 L 624,29 L 623,29 L 622,28 L 620,28 L 618,26 L 617,26 L 616,25 L 616,24 L 615,23 L 615,21 L 614,21 L 613,20 L 613,19 L 613,20 L 612,21 L 611,20 L 611,19 L 610,19 L 609,18 L 609,17 L 608,16 L 608,11 L 608,12 L 607,13 L 606,12 L 605,12 L 604,13 L 601,10 L 600,11 L 599,10 L 599,9 L 600,8 L 600,7 L 601,6 L 602,6 L 598,6 L 597,5 L 599,3 L 599,2 L 599,3 L 598,4 L 597,3 L 597,2 L 596,2 L 595,1 L 595,0 L 594,1 L 593,0 L 426,0 L 425,1 L 424,0 L 423,0 L 422,1 L 421,0 L 420,0 L 419,1 Z" fill="currentColor" /><path d="M 415,0 L 416,1 Z" fill="currentColor" /></svg>