<svg id="Layer_1" data-name="Layer 1" xmlns="http://www.w3.org/2000/svg" xmlns:xlink="http://www.w3.org/1999/xlink" width="704.31" height="704.31" viewBox="0 0 704.31 704.31"><defs><style>.cls-1{fill:none;}.cls-2{clip-path:url(#clip-path);}.cls-3{fill:#406aff;fill-rule:evenodd;}</style><clipPath id="clip-path" transform="translate(-27.31 -27.3)"><rect class="cls-1" x="27.31" y="27.3" width="704.31" height="704.31"/></clipPath></defs><title>vegas_pro_logo_freelogovectors.net</title><g class="cls-2"><path class="cls-3" d="M507.12,252.9H441.84L383.31,486.8a1.8,1.8,0,0,1-1.69,1.41h-8.16a1.59,1.59,0,0,1-1.69-1.41L313,252.9H247.4l78.79,268.72a23,23,0,0,0,7.6,12.36,21.6,21.6,0,0,0,14.63,5h58a21.37,21.37,0,0,0,14.35-5,24.58,24.58,0,0,0,8.16-12.36ZM731.61,379.46C731.61,574,574,731.61,379.46,731.61S27.31,574,27.31,379.46,185,27.3,379.46,27.3,731.61,185,731.61,379.46Zm-42.42,0c0,171.06-138.67,309.73-309.73,309.73S69.73,550.52,69.73,379.46,208.4,69.73,379.46,69.73,689.19,208.4,689.19,379.46Z" transform="translate(-27.31 -27.3)"/></g></svg>